<?xml version="1.0" encoding="UTF-8"?>
<svg xmlns="http://www.w3.org/2000/svg" viewBox="0 0 128.07 146.46">
  <path d="M86.84,34.91V32.26h3.58a7.7,7.7,0,0,0,0-15.4H87.29L90.88,4.11a3.26,3.26,0,0,0-.54-2.83A3.22,3.22,0,0,0,87.76,0H77.67a3.25,3.25,0,0,0-3,2.16l-.35,1-.64-1.33A3.23,3.23,0,0,0,70.71,0H40.31A3.23,3.23,0,0,0,37.2,4.11l3.59,12.75H37.66a7.7,7.7,0,1,0,0,15.4h3.57v2.65C14.61,40.74,0,57.53,0,82.43a64,64,0,0,0,128.07,0C128.07,57.53,113.46,40.74,86.84,34.91ZM68.67,6.46l3.12,6.59a3.27,3.27,0,0,0,3.09,1.84,3.23,3.23,0,0,0,2.88-2.16L80,6.46H83.5l-2.93,10.4H47.5L44.57,6.46Zm-31,19.33a1.24,1.24,0,1,1,0-2.47H90.42a1.24,1.24,0,0,1,0,2.47H37.66Zm45.43,111a1.82,1.82,0,0,0-.74-.16h-14c-.64-6.88,2.21-15.09,5.22-21.57.27.14.53.3.8.43a16,16,0,0,0,7,1.63A16.2,16.2,0,0,0,96,108a24.18,24.18,0,0,0,2-5.85.93.93,0,0,0-1.22-1.06l-4.07,1.4a2,2,0,1,1-1.3-3.75l6.49-2.23a1,1,0,0,0,.63-.92,39.68,39.68,0,0,0-5.28-17.67.91.91,0,0,0-.91-.43A37.71,37.71,0,0,0,87,78.72a1,1,0,0,0-.56.46,1,1,0,0,0,0,.73l.94,2.74a2,2,0,0,1-3.75,1.29l-.9-2.61a1,1,0,0,0-.51-.55.93.93,0,0,0-.75,0,31.41,31.41,0,0,0-11,7.92.94.94,0,0,0-.18.91l3.06,8.87a2,2,0,0,1-2.74,2.43,2,2,0,0,1-1-1.14L68,95.51a1,1,0,0,0-.88-.63h0a.94.94,0,0,0-.88.62A16.12,16.12,0,0,0,72,114c-3.12,6.66-6.11,15.21-5.47,22.59H57.65a86.23,86.23,0,0,0-.85-37.25A22.73,22.73,0,0,0,71,73.85c-.09-.45-.19-.88-.29-1.32a.94.94,0,0,0-.74-.69.9.9,0,0,0-.93.39L61.34,83.52a1.83,1.83,0,0,1-2.55.49A1.8,1.8,0,0,1,58,82.84a1.86,1.86,0,0,1,.28-1.38L68.14,67a.92.92,0,0,0,.06-1,32.17,32.17,0,0,0-9.53-10.76.92.92,0,0,0-1.32.23l-4.66,6.87a1.88,1.88,0,0,1-1.18.78,1.8,1.8,0,0,1-1.37-.29,1.83,1.83,0,0,1-.49-2.55l4.57-6.74a.91.91,0,0,0-.32-1.33,45.92,45.92,0,0,0-10.65-4.27.92.92,0,0,0-.77.17c-.48.36-11.67,9-15.4,21.66a.93.93,0,0,0,.37,1l11.1,7.53a1.82,1.82,0,0,1,.77,1.17A1.8,1.8,0,0,1,39,80.86a1.83,1.83,0,0,1-1.17.78,1.8,1.8,0,0,1-1.37-.29L27.42,75.2a1,1,0,0,0-.94-.07.94.94,0,0,0-.51.78,25.49,25.49,0,0,0,.38,6.49,22.76,22.76,0,0,0,22.3,18.44,23.22,23.22,0,0,0,4.28-.41q1.07-.21,2.1-.51a84.28,84.28,0,0,1,.72,36.66H45a2.33,2.33,0,0,0-.38,0A57.66,57.66,0,0,1,6.46,82.43c0-28.52,21-38.42,38.59-41.7a3.23,3.23,0,0,0,2.64-3.17v-5.3H80.38v5.3A3.23,3.23,0,0,0,83,40.73c17.6,3.28,38.59,13.18,38.59,41.7A57.66,57.66,0,0,1,83.09,136.74ZM75,97.88l-2.88-8.35a29.39,29.39,0,0,1,9.08-6.61l.56,1.62A3.84,3.84,0,1,0,89,82l-.62-1.81c1.59-.43,2.86-.68,3.56-.8A38.82,38.82,0,0,1,96.64,95l-5.83,2a3.84,3.84,0,0,0,2.5,7.27l2.47-.85a22.33,22.33,0,0,1-1.44,3.78,14.32,14.32,0,0,1-19.11,6.59,9.27,9.27,0,0,1-.82-.44,93.51,93.51,0,0,1,5.34-9.51.93.93,0,1,0-1.55-1,92.34,92.34,0,0,0-5.38,9.49A14.27,14.27,0,0,1,67.3,99.12l.44,1.27A3.85,3.85,0,0,0,75,97.88Zm-24.87-12a65.29,65.29,0,0,1,4.44,12.28c-.66.19-1.32.35-2,.48a20.87,20.87,0,0,1-24.4-16.55,23.37,23.37,0,0,1-.41-4.37l7.67,5.21a3.7,3.7,0,0,0,5.13-1,3.7,3.7,0,0,0-1-5.13L29.06,69.64c3.37-10.49,12.33-18.25,14.2-19.79a45.38,45.38,0,0,1,8.84,3.49l-4,5.89a3.69,3.69,0,0,0,3.75,5.7,3.65,3.65,0,0,0,2.36-1.55l4.12-6.07a30.26,30.26,0,0,1,8,9.06l-9.53,14a3.69,3.69,0,0,0,6.12,4.14l6.41-9.45a20.85,20.85,0,0,1-13,22.4A67.43,67.43,0,0,0,51.79,85a.93.93,0,0,0-1.65.87Z"></path>
  <path d="M112.08,71.5a30.16,30.16,0,0,0-2.33-5A1.62,1.62,0,1,0,107,68.14,25.33,25.33,0,0,1,109,72.59a1.62,1.62,0,0,0,1.52,1.07,1.76,1.76,0,0,0,.55-.09A1.62,1.62,0,0,0,112.08,71.5Z"></path>
  <path d="M107.22,62.85c-9-11.28-24-14.22-24.64-14.34a1.61,1.61,0,1,0-.6,3.17c.14,0,14.41,2.83,22.72,13.19a1.61,1.61,0,1,0,2.52-2Z"></path>
</svg>
