<?xml version="1.0" encoding="UTF-8"?>
<svg xmlns="http://www.w3.org/2000/svg" viewBox="0 0 119.34 183.32">
  <path d="M33.06,106.58a.89.89,0,0,0-1.26,1.27c3.42,3.43,6.94,10.71,7,10.78a.89.89,0,0,0,.8.51.92.92,0,0,0,.39-.09.9.9,0,0,0,.42-1.19C40.24,117.55,36.7,110.23,33.06,106.58Z"></path>
  <path d="M71.21,91.68a1.27,1.27,0,0,0,.26,0,.9.9,0,0,0,.86-.63,94.9,94.9,0,0,1,5.35-12.93,23,23,0,0,1,8.68-5.75.89.89,0,0,0-.56-1.7,21.48,21.48,0,0,0-5.65,3c.86-1.44,1.79-2.86,2.78-4.22a.9.9,0,0,0-1.45-1C74.62,77.79,70.78,90,70.62,90.56A.9.9,0,0,0,71.21,91.68Z"></path>
  <path d="M116.11,160.77h-9.73V59.27A46.78,46.78,0,0,0,68,13.32a9.27,9.27,0,1,0-16.64,0A46.78,46.78,0,0,0,13,59.27v101.5H3.23A3.23,3.23,0,0,0,0,164v2.63a16.71,16.71,0,0,0,16.7,16.69h85.94a16.71,16.71,0,0,0,16.7-16.69V164A3.23,3.23,0,0,0,116.11,160.77ZM59.67,6.46a2.81,2.81,0,1,1-2.8,2.81A2.8,2.8,0,0,1,59.67,6.46ZM19.42,59.27a40.25,40.25,0,0,1,80.49,0v101.5H69.4a9.05,9.05,0,0,1,2.68-6.95.89.89,0,1,0-1.2-1.32,10.87,10.87,0,0,0-3.28,8.27h-.27a39.65,39.65,0,0,1,3.3-20.5.89.89,0,1,0-1.59-.81,40.66,40.66,0,0,0-3.51,21.31H62.37a100.79,100.79,0,0,1-1.27-26.4,5.75,5.75,0,0,0,1.3-.25,6.28,6.28,0,0,0,4-3.71,6,6,0,0,0,.39-1.55,5.83,5.83,0,0,1,3.17-4.6,10.09,10.09,0,0,0,5.12-5.47,10.22,10.22,0,0,0,.61-5.07,5.66,5.66,0,0,1,3.67-6A15,15,0,0,0,87.4,87a5.62,5.62,0,0,1,1.36-6.88A10.05,10.05,0,0,0,90,79V79a1.62,1.62,0,0,0,3.23,0V65a1.6,1.6,0,0,0-1.08-1.51,5.22,5.22,0,0,1,.55-.86,6.3,6.3,0,0,0,.19-7.53,1.63,1.63,0,0,0,.32-1.24C89.61,32,75.52,26.27,74.92,26a1.62,1.62,0,0,0-1.18,3c.51.2,12.31,5.14,15.94,23.73a6.3,6.3,0,0,0-7.88,3.67,6.36,6.36,0,0,0-.43,1.87,5.65,5.65,0,0,1-3.3,4.7,10.14,10.14,0,0,0-5.71,10.67,5.62,5.62,0,0,1-3.68,6,15,15,0,0,0-8.17,20.7,5.67,5.67,0,0,1-1.37,6.87,10.16,10.16,0,0,0-3,11.63,5.42,5.42,0,0,1-.7,5.38,6.75,6.75,0,0,0-.51.8,13.68,13.68,0,0,0-1.24-4.38,13.48,13.48,0,0,0-7.9-7,6.26,6.26,0,0,1-4.2-5.88,9.05,9.05,0,0,0-17.54-3A9.06,9.06,0,0,0,26.9,115a6.21,6.21,0,0,1,1.85,6.9,13.56,13.56,0,0,0,8.32,17.45,6.34,6.34,0,0,1,4.24,5.87,9.28,9.28,0,0,0,1.22,4.35,9.15,9.15,0,0,0,7.89,4.49,8.86,8.86,0,0,0,3.62-.77l.52-.26a74.44,74.44,0,0,1,1.78,7.74H19.42ZM52,125.47a.9.9,0,0,0-1.25-.2c-1.58,1.13-2.55,3.58-3.09,5.49-.35-.71-.7-1.39-1-2a11.09,11.09,0,0,1,2.26-6.33.89.89,0,1,0-1.37-1.14A11.82,11.82,0,0,0,45.23,126c-1.39-2.6-2.31-4.16-2.35-4.21a.89.89,0,1,0-1.53.92c0,.09,2.23,3.74,4.95,9.29-2.37-.56-6.45-1.2-9.83-.09a.89.89,0,0,0-.57,1.12.91.91,0,0,0,1.13.58c3.81-1.25,8.91.11,10.29.52a131,131,0,0,1,6.73,17.12c-.24.14-.48.26-.74.38a7.32,7.32,0,0,1-9.23-3,7.42,7.42,0,0,1-1-3.48,8.14,8.14,0,0,0-5.45-7.53,11.77,11.77,0,0,1-7.22-15.15A8,8,0,0,0,28,113.6a7.1,7.1,0,0,1-2-2.52,7.25,7.25,0,0,1,3.6-9.77,7.12,7.12,0,0,1,2.91-.62,7.25,7.25,0,0,1,7.3,7.14,8.06,8.06,0,0,0,5.41,7.55,11.74,11.74,0,0,1,7.32,15.11A8.05,8.05,0,0,0,55,139.42a7.14,7.14,0,0,1,1.92,2.46,7.23,7.23,0,0,1-1.36,8.21,133.18,133.18,0,0,0-6.65-16.77c.3-1.65,1.28-5.43,2.9-6.6A.9.9,0,0,0,52,125.47Zm5.82-7.28a8.33,8.33,0,0,1,0-6.17,8.41,8.41,0,0,1,2.47-3.41,7.47,7.47,0,0,0,1.84-9,13.21,13.21,0,0,1,7.2-18.23,7.41,7.41,0,0,0,4.82-7.91,8.38,8.38,0,0,1,4.7-8.79,7.45,7.45,0,0,0,4.33-6.19,4.42,4.42,0,0,1,.3-1.34,4.52,4.52,0,0,1,4.21-2.88,4.71,4.71,0,0,1,2.54.76,1.56,1.56,0,0,0,.75.64,4.48,4.48,0,0,1,1.17,4,4.58,4.58,0,0,1-.88,1.94A7.58,7.58,0,0,0,90,68.43v7.33a8.26,8.26,0,0,1-2.31,3A7.4,7.4,0,0,0,85.8,87.8a13.2,13.2,0,0,1-7.11,18.26,7.49,7.49,0,0,0-4.8,7.89,8.39,8.39,0,0,1-4.73,8.69,7.6,7.6,0,0,0-4.17,6,4.64,4.64,0,0,1-.28,1.11,4.52,4.52,0,0,1-2.85,2.67,3.9,3.9,0,0,1-.59.14,122.83,122.83,0,0,1,5.48-25,22.2,22.2,0,0,1,10.18-9,.89.89,0,1,0-.71-1.64,23.77,23.77,0,0,0-7.74,5.41c.43-1.29.87-2.56,1.3-3.8l.6-1.74a.89.89,0,0,0-.56-1.13.9.9,0,0,0-1.14.55l-.59,1.74-.25.7c-.32-2.22-.93-4.77-2.06-6.26a.89.89,0,1,0-1.42,1.08c1.55,2,2,7.31,2.06,9.36-1,3.08-2.07,6.3-3,9.69a14.67,14.67,0,0,0-1.49-2.87.89.89,0,0,0-1.49,1,11,11,0,0,1,2,5.56,112.23,112.23,0,0,0-2.93,16.32,4.63,4.63,0,0,1-1.52-.65,4.54,4.54,0,0,1-1.06-6.52A7.19,7.19,0,0,0,57.83,118.19ZM57,133.35a6.41,6.41,0,0,0,2.33.93q-.31,3.84-.35,7.93a8.78,8.78,0,0,0-.43-1.11,9,9,0,0,0-2.4-3.06,6.35,6.35,0,0,1-1.87-6.94c.11-.3.19-.61.28-.91A6.25,6.25,0,0,0,57,133.35Zm1.88,14.79a5.89,5.89,0,0,0,.21-.68,106.62,106.62,0,0,0,1.5,13.3H58.15a75,75,0,0,0-2-8.77A8.92,8.92,0,0,0,58.85,148.14Zm43.79,28.72H16.7a10.25,10.25,0,0,1-10.22-9.63H112.86A10.25,10.25,0,0,1,102.64,176.86Z"></path>
</svg>
