<?xml version="1.0" encoding="UTF-8"?>
<svg xmlns="http://www.w3.org/2000/svg" viewBox="0 0 150.53 203.11">
  <path d="M55.11,40.47h-5.5v-2.3h.59a11.17,11.17,0,0,0,2.59-22l3-9A3.24,3.24,0,0,0,52.7,2.9h-8a3.23,3.23,0,0,0-3.23,3.23,1.54,1.54,0,1,1-3.07,0A3.23,3.23,0,0,0,35.21,2.9H13.66a3.24,3.24,0,0,0-3.07,4.25l3,9a11.17,11.17,0,0,0,2.59,22h.6v2.3H11.25A11.27,11.27,0,0,0,0,51.73V191.86a11.27,11.27,0,0,0,11.25,11.25H55.11a11.26,11.26,0,0,0,11.25-11.25V51.73A11.26,11.26,0,0,0,55.11,40.47ZM32.66,9.37a8,8,0,0,0,14.63,0h.94l-2.14,6.46H20.27L18.13,9.37ZM16.16,31.7a4.71,4.71,0,1,1,0-9.41h34a4.71,4.71,0,1,1,0,9.41h-34ZM11.25,46.94H20a3.23,3.23,0,0,0,3.23-3.23V38.17H43.14v5.54a3.23,3.23,0,0,0,3.23,3.23h8.74a4.8,4.8,0,0,1,4.79,4.79V132.3a3.57,3.57,0,0,0-1-1.63,2.38,2.38,0,0,0-2.53-.24c-3.74,1.63-9.63,12.53-11.07,31.68a43.67,43.67,0,0,1-5.72,3.82A18.44,18.44,0,0,0,44,152.85c-.21-3.26-.9-5.17-2.05-5.68a1.58,1.58,0,0,0-1.65.26c-1.94,1.53-3.08,7.95-1.45,16.87A21.15,21.15,0,0,1,35.25,168c.22-2.44.38-5.13.45-8.1.32-13.21-2.76-27.11-6-38.36,0,0,0,0,0,0a31.23,31.23,0,0,0,7-6.74.77.77,0,0,0,.27-.35,26.16,26.16,0,0,0,5.44-17.11c-.16-3.16-.75-7.12-2.66-8a1.9,1.9,0,0,0-2,.3c-2.82,2.16-4.43,11.81-2.31,24.28a30.86,30.86,0,0,1-6.21,6.05c-1.52-5.1-3-9.59-4.24-13.14-.88-2.6-1.57-4.65-2-6.12a37.76,37.76,0,0,1-1.3-7.28c1.25-.4,11.24-3.92,13.64-14.52.75-3.33.63-5.46-.36-6.3a1.62,1.62,0,0,0-1.7-.23c-1.08.44-2.29,1.92-3.39,4.26a1.15,1.15,0,0,0-.31-.35c-.69-.49-1.87-.3-3.61.58a10.83,10.83,0,0,0-5.57,7.59,24.56,24.56,0,0,1-2.25-5.11c5.33-9.16,6.62-16.65,5.12-19.08a1.7,1.7,0,0,0-1.59-.87c-1.76.12-3.37,3-4.4,5.36-5,11.52,2.43,21.59,2.75,22,0,0,.07,0,.1.09a40.79,40.79,0,0,0,1.36,14.28c.43,1.5,1.13,3.57,2,6.19.19.56.39,1.15.59,1.76a28.5,28.5,0,0,1-6.52-3.43C16,94,12,85.87,8.87,84.71a1.84,1.84,0,0,0-1.94.3,2.26,2.26,0,0,0-.47.62V51.73A4.8,4.8,0,0,1,11.25,46.94ZM58.1,141.69a33.94,33.94,0,0,1-11.16,19c1.63-18,7.25-27.63,10-28.83a1.19,1.19,0,0,1,.51-.13.62.62,0,0,1,.42.15C58.73,132.58,59.3,135.56,58.1,141.69ZM41.27,148.6s.87.51,1.12,4.35a16.29,16.29,0,0,1-2.32,9.46C38.72,153.51,40.5,148.81,41.27,148.6ZM38.69,90.84a.54.54,0,0,1,.32-.15l.11,0c.54.25,1.51,1.93,1.75,6.66a24.26,24.26,0,0,1-4.15,14.71C34.86,99.6,37,92.12,38.69,90.84ZM21.82,85.27A11.47,11.47,0,0,1,22.44,83a19.08,19.08,0,0,0,6.34-3.63,45.19,45.19,0,0,0-2,9.52,22.5,22.5,0,0,1-5.2,2.85,37,37,0,0,1,.24-6.19A.65.65,0,0,0,21.82,85.27Zm1.79-4.41a8.29,8.29,0,0,1,3.05-2.63,6.86,6.86,0,0,1,1.65-.64A12.13,12.13,0,0,1,23.61,80.86Zm10.32-7.11h0c.17.12.65,1.27-.15,4.78a17.15,17.15,0,0,1-5.26,9C29.85,77.88,33.14,73.75,33.93,73.75ZM17.57,77.13A19.35,19.35,0,0,1,18.7,65.34c1.5-3.43,2.67-4.4,3.08-4.43h0s.09.05.15.14C22.8,62.45,22.31,68.49,17.57,77.13ZM15.8,104.27A22.37,22.37,0,0,1,8.25,92.49c-1.07-4.23-.65-6-.28-6.31a.16.16,0,0,1,.13-.05.6.6,0,0,1,.23.05C10.14,86.85,14,92.82,15.8,104.27Zm39.31,92.38H11.25a4.8,4.8,0,0,1-4.79-4.79V91.69c.09.4.18.8.28,1.18a24.26,24.26,0,0,0,9.49,13.7.81.81,0,0,0,.35.25,29,29,0,0,0,8.07,4.05h.06c3.53,10.59,8.5,26.75,9.33,42.61a21.46,21.46,0,0,1-3-3.24c1.63-8.92.48-15.33-1.45-16.87a1.58,1.58,0,0,0-1.65-.26c-1.15.51-1.84,2.42-2,5.68A18.4,18.4,0,0,0,30.36,152a40.52,40.52,0,0,1-5.53-4.31c.07-18-4.63-28.64-8-30.45a2.24,2.24,0,0,0-2.42,0c-2.16,1.46-2.05,6.55-1.59,10.56a33.55,33.55,0,0,0,10.56,20.6.77.77,0,0,0,.35.34,40.35,40.35,0,0,0,10.38,7.09h0c0,1.32,0,2.63,0,3.94-.56,23.43-6.75,29.45-6.81,29.51a.78.78,0,0,0,.53,1.36.79.79,0,0,0,.52-.2c.23-.21,4.87-4.6,6.66-20.53a.79.79,0,0,0,.29-.11c.05,0,.24-.16.54-.39a44.7,44.7,0,0,0,10.4-6.18.8.8,0,0,0,.39-.31,35.82,35.82,0,0,0,13-21c.09-.49.19-1,.27-1.51v51.38A4.8,4.8,0,0,1,55.11,196.65ZM29.73,148.36a16.27,16.27,0,0,1-2.32-9.46c.24-3.8,1.1-4.34,1.08-4.35C29.3,134.77,31.07,139.46,29.73,148.36Zm-6.47-2.21a31.76,31.76,0,0,1-8.91-18.48c-.67-5.8.07-8.53.91-9.1a.52.52,0,0,1,.32-.1,1,1,0,0,1,.5.15C18.56,119.94,23.06,129.33,23.26,146.15Z"></path>
  <path d="M53.85,96.41a1.61,1.61,0,0,0,1.61-1.61V56.54a1.62,1.62,0,0,0-3.23,0V94.8A1.61,1.61,0,0,0,53.85,96.41Z"></path>
  <path d="M53.85,118.69a1.61,1.61,0,0,0,1.61-1.61V103.61a1.62,1.62,0,1,0-3.23,0v13.47A1.61,1.61,0,0,0,53.85,118.69Z"></path>
  <path d="M138.93,165.88a.61.61,0,0,0-.7-.52l-13.78,2.09a6.63,6.63,0,0,0-4.19,2.45c.5-3.78.83-7.59,1-11.38h0a.45.45,0,0,0,.2,0l12.5-4.38a6.33,6.33,0,0,0,3.88-8.07.6.6,0,0,0-.78-.37l-12.5,4.38a6.28,6.28,0,0,0-3.17,2.47c0-3.38-.06-6.73-.23-10h0l11.53-5.1a6.07,6.07,0,0,0,3.09-8,.62.62,0,0,0-.82-.31l-11.53,5.1a6.05,6.05,0,0,0-2.68,2.33c-.23-2.79-.52-5.51-.84-8.14l10.4-5.45a5.7,5.7,0,0,0,2.41-7.7.61.61,0,0,0-.83-.26l-10.45,5.47a5.73,5.73,0,0,0-2.3,2.22c-.13-.88-.26-1.75-.4-2.6-.39-2.47-.82-4.87-1.26-7.19l9.2-5a5.29,5.29,0,0,0,2.13-7.17.6.6,0,0,0-.37-.29.59.59,0,0,0-.47,0l-9.5,5.16a5.14,5.14,0,0,0-2,2c-.59-2.77-1.19-5.39-1.78-7.81l8-4.36A4.77,4.77,0,0,0,124.63,89a.61.61,0,0,0-.83-.25l-8.45,4.59a4.69,4.69,0,0,0-1.84,1.8c-.67-2.56-1.3-4.81-1.86-6.73l6.95-3.78a4.21,4.21,0,0,0,1.7-5.72.62.62,0,0,0-.84-.25l-7.34,4a4.21,4.21,0,0,0-1.7,1.7c-.59-1.89-1-2.94-1-3a.61.61,0,0,0-.78-.38.6.6,0,0,0-.38.78c0,.07.28.83.71,2.18a4.22,4.22,0,0,0-1.62-.67l-8.22-1.5a.64.64,0,0,0-.72.5,4.22,4.22,0,0,0,3.4,4.91l8.22,1.5h.11a.71.71,0,0,0,.25-.06c.54,1.85,1.15,4.05,1.8,6.52a4.78,4.78,0,0,0-2-1l-9.33-2.28a.62.62,0,0,0-.74.45A4.76,4.76,0,0,0,103.63,98l9.33,2.28.15,0a.65.65,0,0,0,.38-.13c.57,2.35,1.14,4.89,1.71,7.57a5.29,5.29,0,0,0-2.21-1.17L102.5,104a.6.6,0,0,0-.74.44,5.27,5.27,0,0,0,.58,4,5.21,5.21,0,0,0,3.24,2.41l10.49,2.65a.39.39,0,0,0,.15,0h.11c.53,2.84,1,5.8,1.5,8.86a5.6,5.6,0,0,0-2.25-1.46L104.46,117a.63.63,0,0,0-.47,0,.65.65,0,0,0-.32.35,5.73,5.73,0,0,0,3.5,7.28l11.12,3.9a.52.52,0,0,0,.21,0,.47.47,0,0,0,.17,0c.32,2.6.6,5.25.83,7.93a6,6,0,0,0-2.68-1.7L104.76,131a.65.65,0,0,0-.47.05.66.66,0,0,0-.3.36,6.07,6.07,0,0,0,4,7.58l11.93,3.68c.16,3,.25,6.07.24,9.13a6.22,6.22,0,0,0-2.67-2.13l-12.2-5.14a.66.66,0,0,0-.48,0,.59.59,0,0,0-.33.33,6.33,6.33,0,0,0,3.38,8.29L120,158.31c-.15,3.5-.43,7-.86,10.44a6.64,6.64,0,0,0-2.59-2.53l-12.24-6.65a.63.63,0,0,0-.84.24,6.62,6.62,0,0,0,2.67,9l12,6.51c-.6,3.19-1.34,6.33-2.24,9.39,0-.08,0-.16-.07-.25a6.88,6.88,0,0,0-3.33-4.12l-12.86-7a.63.63,0,0,0-.84.24,6.92,6.92,0,0,0,2.78,9.4l12.62,6.85c-.26.71-.54,1.41-.82,2.1a.62.62,0,0,0,.34.8.68.68,0,0,0,.23,0,.63.63,0,0,0,.58-.39c.3-.74.59-1.5.87-2.26h.09l14.61-.79a7,7,0,0,0,6.55-7.3.63.63,0,0,0-.21-.43.56.56,0,0,0-.44-.15l-14.62.79a6.9,6.9,0,0,0-3.94,1.51c.76-2.71,1.39-5.48,1.91-8.27l.14,0h.1l13.77-2.09a6.61,6.61,0,0,0,4.35-2.63A6.54,6.54,0,0,0,138.93,165.88Zm-16.84-12.07a5,5,0,0,1,2.91-2.6l11.88-4.16a5.11,5.11,0,0,1-3.3,5.9l-11.88,4.17A5.11,5.11,0,0,1,122.09,153.81Zm0-32.26,9.87-5.17a4.5,4.5,0,0,1-2.14,5.47L119.91,127A4.48,4.48,0,0,1,122.05,121.55Zm-4,5.6-10.51-3.69a4.48,4.48,0,0,1-2.9-5.11L115.18,122A4.48,4.48,0,0,1,118.08,127.15ZM99.44,178.52a5.58,5.58,0,0,1,.19-3.78l12.29,6.67a5.65,5.65,0,0,1,2.74,3.39,5.58,5.58,0,0,1-.19,3.78l-12.29-6.67A5.65,5.65,0,0,1,99.44,178.52Zm22,5,14-.76a5.72,5.72,0,0,1-5.39,5.39l-14,.76A5.71,5.71,0,0,1,121.46,183.5ZM124,135.33l10.93-4.84a4.74,4.74,0,0,1-.12,3.11,4.79,4.79,0,0,1-2.55,2.68l-10.93,4.84A4.83,4.83,0,0,1,124,135.33Zm-6.83-26.21a4,4,0,0,1,2-2.41l8.92-4.84a4,4,0,0,1-1.88,4.92l-8.86,4.82c-.1-.49-.19-1-.29-1.46A4,4,0,0,1,117.14,109.12Zm-2.9-12.61a3.52,3.52,0,0,1,1.7-2.1l7.86-4.26a3.56,3.56,0,0,1,0,2.12,3.52,3.52,0,0,1-1.7,2.1l-7.74,4.2c-.1-.39-.19-.76-.29-1.14A3.6,3.6,0,0,1,114.24,96.51Zm-1.53-12.79,6.74-3.66A3,3,0,0,1,118,83.54l-6.73,3.65c0-.09-.05-.19-.08-.28A3,3,0,0,1,112.71,83.72ZM102.06,86a3,3,0,0,1-1.92-1.24,2.92,2.92,0,0,1-.53-1.62l7.55,1.37a3,3,0,0,1,2.45,2.86Zm1.86,10.87a3.55,3.55,0,0,1-2.68-3.66l8.68,2.13a3.48,3.48,0,0,1,2.18,1.6,3.55,3.55,0,0,1,.51,2Zm11.81,15.28-9.85-2.49a4.08,4.08,0,0,1-3-4.32l9.85,2.49A4.08,4.08,0,0,1,115.73,112.12Zm4.06,29.25-11.43-3.52a4.83,4.83,0,0,1-3.33-5.43l11.42,3.52a4.78,4.78,0,0,1,2.85,2.36,4.88,4.88,0,0,1,.44,1.23l.09,1.41A3,3,0,0,1,119.79,141.37Zm.16,15.57-11.6-4.89a5.1,5.1,0,0,1-2.93-6.09l11.6,4.88a5.11,5.11,0,0,1,3.11,4.41c0,.28,0,.56,0,.85A5,5,0,0,1,120,156.94Zm-13.2,10.78a5.39,5.39,0,0,1-2.43-6.76L116,167.3a5.4,5.4,0,0,1,2.79,4.22c-.13.84-.27,1.68-.41,2.51Zm30,2.35a5.37,5.37,0,0,1-3.53,2.14l-13.13,2a5.41,5.41,0,0,1,4.58-5.54l13.13-2A5.28,5.28,0,0,1,136.72,170.07Z"></path>
  <path d="M135.15,69.16V34.25A9.6,9.6,0,0,0,136,15.12l3.92-10.78a3.23,3.23,0,0,0-3-4.34h-5.29a3.23,3.23,0,0,0-3.23,3.23,2.67,2.67,0,0,1-5.34,0A3.23,3.23,0,0,0,119.79,0H101.33a3.23,3.23,0,0,0-3,4.34l3.92,10.78a9.6,9.6,0,0,0,.84,19.13V69.16A15.91,15.91,0,0,0,87.67,85v102.2a15.9,15.9,0,0,0,15.88,15.88h31.1a15.89,15.89,0,0,0,15.88-15.88V85A15.9,15.9,0,0,0,135.15,69.16Zm-18-62.7a9.14,9.14,0,0,0,8.54,5.9,9.05,9.05,0,0,0,5-1.46L129.14,15H109.06l-3.12-8.58ZM100.23,24.65a3.15,3.15,0,0,1,3.15-3.15h31.44a3.15,3.15,0,1,1,0,6.3H103.38A3.15,3.15,0,0,1,100.23,24.65Zm43.84,162.58a9.44,9.44,0,0,1-9.42,9.42h-31.1a9.43,9.43,0,0,1-9.41-9.42V85a9.42,9.42,0,0,1,9.41-9.41h2.74a3.23,3.23,0,0,0,3.23-3.23V34.26h19.17V72.39a3.23,3.23,0,0,0,3.23,3.23h2.73A9.43,9.43,0,0,1,144.07,85Z"></path>
  <path d="M139.1,88.89a1.61,1.61,0,0,0-1.62,1.61v34.41a1.62,1.62,0,1,0,3.23,0V90.5A1.61,1.61,0,0,0,139.1,88.89Z"></path>
  <path d="M139.1,130.59a1.61,1.61,0,0,0-1.62,1.61v13.45a1.62,1.62,0,0,0,3.23,0V132.2A1.61,1.61,0,0,0,139.1,130.59Z"></path>
</svg>
