<?xml version="1.0" encoding="UTF-8"?>
<svg xmlns="http://www.w3.org/2000/svg" viewBox="0 0 88.92 151.06">
  <path d="M63.7,34.21V31.69a9.59,9.59,0,0,0-.83-18.57l2.95-8.87A3.22,3.22,0,0,0,62.76,0H55.87a3.23,3.23,0,0,0-3.23,3.23,1.54,1.54,0,1,1-3.08,0A3.23,3.23,0,0,0,46.33,0H26.16a3.24,3.24,0,0,0-3.07,4.25l3,8.87a9.59,9.59,0,0,0-.83,18.57v2.52C9.82,40,0,52.28,0,65.94c0,16.47,17.75,85.12,44.46,85.12S88.92,82.41,88.92,65.94C88.92,52.28,79.1,40,63.7,34.21ZM43.77,6.46A8,8,0,0,0,58,7.3l-1.87,5.62H32.79L30.64,6.46ZM24.87,22.51A3.14,3.14,0,0,1,28,19.38h32.9a3.13,3.13,0,1,1,0,6.26H28A3.14,3.14,0,0,1,24.87,22.51Zm4.58,17.06a3.22,3.22,0,0,0,2.23-3.07V32.11H57.24V36.5a3.23,3.23,0,0,0,2.22,3.07c14,4.56,23,14.91,23,26.37,0,12-8.54,44.13-20.17,63.41H54.13v-6.07a2.59,2.59,0,0,1,2.59-2.58h2a7.67,7.67,0,1,0,0-15.33H54.5a8,8,0,0,1-8-8c0-4.18,3-8.19,7.73-10.21a14.28,14.28,0,0,1,6.7-1.38h.12a5.93,5.93,0,0,1,5.77,4.64,3.59,3.59,0,0,0,.11.72,4.93,4.93,0,0,1,0,.55,5.9,5.9,0,0,1-11.8.19,1,1,0,0,0-1-1,1,1,0,0,0-1,1,7.9,7.9,0,0,0,15.56,1.65,4,4,0,0,0,2.19.65A4.13,4.13,0,0,0,75,90.12a1,1,0,0,0-2,0,2.12,2.12,0,0,1-4.14.65c0-.32-.1-.63-.17-.94l0-.12a7.93,7.93,0,0,0-7.59-5.93,16.5,16.5,0,0,0-7.67,1.54C48,87.66,44.5,92.39,44.5,97.37a7.34,7.34,0,0,0,0,.81.73.73,0,0,0,0,.2,2.13,2.13,0,1,1-4.25,0,1,1,0,0,0-2,0,4.12,4.12,0,0,0,7.06,2.9,10,10,0,0,0,9.19,6.09h4.25a5.67,5.67,0,1,1,0,11.33h-2a4.59,4.59,0,0,0-4.59,4.58v6.07H45.07v-5.71a1.36,1.36,0,0,1,1-1.28,7,7,0,0,0-2.05-13.7l-10.23.13A10.4,10.4,0,0,1,23.44,98.41,10.79,10.79,0,0,1,23.73,96a13.11,13.11,0,0,1,.48-1.47c1.76-4.39,6.34-7.31,10.89-8.1a48.5,48.5,0,0,0,11.39-3.58c3.74-1.87,7.88-4.45,9.82-8.49a4.12,4.12,0,0,0,3,1.34,4.16,4.16,0,0,0,4.15-4.16,1,1,0,0,0-2,0,2.15,2.15,0,0,1-4.29.15,11.48,11.48,0,0,0,.23-2.32,12.21,12.21,0,0,0-1.37-5.7.89.89,0,0,0-.14-.25A12.59,12.59,0,0,0,45.24,57.1c-1.81-.09-11.1-.26-16.42,4.6a10.48,10.48,0,0,0-3.43,7.07,2.63,2.63,0,0,1-5.1-.89,1,1,0,0,0-2,0,4.63,4.63,0,0,0,7.3,3.78,8.15,8.15,0,0,0,2,3.6A8.82,8.82,0,0,0,34,78a8.63,8.63,0,0,0,8.62-8.61,1,1,0,0,0-2,0A6.63,6.63,0,0,1,34,76a6.77,6.77,0,0,1-4.89-2.07,6.09,6.09,0,0,1-1.72-4.5c0-.09.2-1.54.2-1.57a8.5,8.5,0,0,1,2.63-4.64c3.67-3.35,10.36-4.29,15-4.07a10.56,10.56,0,0,1,9,5.1A1.78,1.78,0,0,1,50.56,64a1,1,0,0,0-2,0,3.78,3.78,0,0,0,6.51,2.61,10.76,10.76,0,0,1,.36,2.76,9.4,9.4,0,0,1-.16,1.77,1.11,1.11,0,0,0-.08.37c-.82,3.67-3.87,6.68-9.59,9.55a47.25,47.25,0,0,1-10.84,3.4,16.24,16.24,0,0,0-12.08,8.62,14.28,14.28,0,0,0-.79,2.14A2.62,2.62,0,0,1,17,93.84a1,1,0,0,0-2,0,4.62,4.62,0,0,0,4.63,4.62,4.58,4.58,0,0,0,1.81-.37c0,.11,0,.21,0,.32a12.4,12.4,0,0,0,12.39,12.38l10.24-.13a5,5,0,0,1,1.45,9.78,3.36,3.36,0,0,0-2.45,3.2v5.71H26.64C15,110.07,6.46,77.94,6.46,65.94,6.46,54.48,15.49,44.13,29.45,39.57Z"></path>
  <path d="M57.16,47.75c.59.14,14.44,3.38,18,17.79a1.61,1.61,0,0,0,1.57,1.22,1.69,1.69,0,0,0,.38,0,1.63,1.63,0,0,0,1.19-2c-4-16.4-19.77-20-20.44-20.16a1.61,1.61,0,1,0-.69,3.15Z"></path>
  <path d="M77.05,71.73A1.61,1.61,0,0,0,75.14,73l-2.4,11.59A1.62,1.62,0,0,0,74,86.49a1.84,1.84,0,0,0,.33,0,1.62,1.62,0,0,0,1.58-1.29l2.4-11.59A1.62,1.62,0,0,0,77.05,71.73Z"></path>
</svg>
