<?xml version="1.0" encoding="UTF-8"?>
<svg xmlns="http://www.w3.org/2000/svg" viewBox="0 0 59.01 63.09">
  <path d="M47.61,34.48l8.93-7.18L30,3l-.48-.44L2.47,27.3l8.93,7.18,17.48-16,.63-.57,0,0,.6.54Zm-45-4.67L5.18,40.18,10,35.75ZM53.84,40.18,56.4,29.81,49,35.75Zm5-12.3-3.4,13.74-.14.54-.07.3-.25.2-24.86,20-.58.47-.59-.47-24.86-20-.24-.2-.08-.3-.13-.54L.21,27.88l-.08-.31L0,27l.41-.38L28.88.58,29.51,0l.63.58L58.6,26.66,59,27l-.13.53Zm-27.2-.18a9.49,9.49,0,0,0-2.1-2.8,9.35,9.35,0,0,0,0,13.82,9.28,9.28,0,0,0,3-6.91A9.37,9.37,0,0,0,31.61,27.7Zm-15,12.22a8,8,0,0,0,.72,2.7,7.84,7.84,0,0,0,5.35,4.29,7.94,7.94,0,0,0,2.79.11,7.58,7.58,0,0,0-.72-2.7A7.84,7.84,0,0,0,19.35,40,7.94,7.94,0,0,0,16.56,39.92Zm25.17,2.7a7.73,7.73,0,0,0,.72-2.7,7.75,7.75,0,0,0-6,1.64h0a7.79,7.79,0,0,0-2.18,2.76,8,8,0,0,0-.72,2.7,7.93,7.93,0,0,0,2.79-.11,7.72,7.72,0,0,0,3.17-1.53h0A7.79,7.79,0,0,0,41.73,42.62Zm-8.95,6.16-2.34,1.88V60L52.93,41.89l-5.4-5-3.19,2.56a9.79,9.79,0,0,1-.92,3.93,9.63,9.63,0,0,1-2.7,3.42h0a9.65,9.65,0,0,1-3.94,1.89A9.8,9.8,0,0,1,32.78,48.78Zm-5.47-1.53,1.26,1V40.39a11.24,11.24,0,0,1,.36-17.45l.58-.45.57.45a11.24,11.24,0,0,1,.36,17.45v7.87l1.27-1a9.65,9.65,0,0,1,.91-3.72,9.77,9.77,0,0,1,2.7-3.43h0a9.63,9.63,0,0,1,7.73-2l3.08-2.47L29.51,20.42,12.87,35.66,16,38.13a9.6,9.6,0,0,1,7.74,2,9.54,9.54,0,0,1,2.7,3.42A9.84,9.84,0,0,1,27.31,47.25ZM14.67,39.5l-3.19-2.57-5.4,5L28.57,60V50.66l-2.34-1.88a9.8,9.8,0,0,1-4-.05,9.67,9.67,0,0,1-6.64-5.31A9.78,9.78,0,0,1,14.67,39.5Zm14.84-37V17.89" fill="#90c754"></path>
</svg>
