<?xml version="1.0" encoding="UTF-8"?>
<svg xmlns="http://www.w3.org/2000/svg" viewBox="0 0 238.45 65.23">
  <path d="M58.76,35.48l8.93-7.18L41.15,4l-.48-.44L13.62,28.3l8.93,7.18L40,19.48l.63-.57h0l.6.54Zm-45-4.67,2.57,10.37,4.82-4.43ZM65,41.18l2.56-10.37-7.4,5.94Zm5-12.3-3.4,13.74-.14.54-.07.3-.25.2-24.86,20-.58.47-.59-.47-24.86-20-.24-.2-.08-.3-.13-.54L11.36,28.88l-.08-.31L11.15,28l.41-.38L40,1.58,40.66,1l.63.58L69.75,27.66l.4.34-.13.53Zm-27.2-.18a9.62,9.62,0,0,0-2.1-2.8,9.35,9.35,0,0,0-.61,13.21,7,7,0,0,0,.61.61,9.31,9.31,0,0,0,3-6.91,9.57,9.57,0,0,0-.93-4.11Zm-15,12.22A7.79,7.79,0,0,0,36.65,48a7.67,7.67,0,0,0-.72-2.7A7.85,7.85,0,0,0,30.5,41a7.93,7.93,0,0,0-2.79-.08ZM53,43.62a7.89,7.89,0,0,0,.72-2.7,7.77,7.77,0,0,0-6,1.64h0a7.71,7.71,0,0,0-2.18,2.76,8,8,0,0,0-.72,2.7,7.93,7.93,0,0,0,2.79-.11,7.73,7.73,0,0,0,3.17-1.53h0a7.91,7.91,0,0,0,2.14-2.76Zm-9,6.16-2.34,1.88V61L64.08,42.89l-5.4-5-3.19,2.56a9.88,9.88,0,0,1-.92,3.93,9.68,9.68,0,0,1-2.7,3.42h0a9.93,9.93,0,0,1-7.94,2Zm-5.47-1.53,1.26,1V41.39a11.23,11.23,0,0,1,.36-17.45l.58-.45.57.45a11.25,11.25,0,0,1,.36,17.45v7.87l1.27-1a9.6,9.6,0,0,1,.91-3.72,9.81,9.81,0,0,1,2.7-3.43h0a9.65,9.65,0,0,1,7.73-2l3.08-2.47L40.66,21.42,24,36.66l3.13,2.47a9.72,9.72,0,0,1,10.44,5.42,10.07,10.07,0,0,1,.87,3.7ZM25.82,40.5l-3.19-2.57-5.4,5L39.72,61V51.66l-2.34-1.88a9.8,9.8,0,0,1-4-.05,9.66,9.66,0,0,1-7.56-9.23Zm14.84-37V18.89" fill="#90c754"></path>
  <g style="isolation:isolate">
    <text transform="translate(77.45 44.47)" font-size="35" fill="#656565" font-family="Raleway-Medium, Raleway" font-weight="500" letter-spacing="-0.01em" style="isolation:isolate">t<tspan x="12.08" y="0" letter-spacing="0em">erradium</tspan></text>
  </g>
  <rect width="10.4" height="65.23" fill="none"></rect>
</svg>
