<?xml version="1.0" encoding="UTF-8"?>
<svg xmlns="http://www.w3.org/2000/svg" viewBox="0 0 268.85 286.18">
  <polygon points="221.37 157.35 264.25 122.87 136.8 6.18 134.5 4.07 4.61 122.87 47.49 157.35 131.43 80.52 134.45 77.78 137.33 80.37 221.37 157.35" fill="#010101" stroke="#010101" stroke-miterlimit="10" stroke-width="6"></polygon>
  <polygon points="5.28 134.92 17.62 184.72 40.77 163.44 5.28 134.92" fill="#010101" stroke="#010101" stroke-miterlimit="10" stroke-width="6"></polygon>
  <polygon points="251.28 184.72 263.57 134.92 228.04 163.44 251.28 184.72" fill="#010101" stroke="#010101" stroke-miterlimit="10" stroke-width="6"></polygon>
  <path d="M144.68,124.79a45.71,45.71,0,0,0-10.08-13.45,44.9,44.9,0,0,0-2.94,63.43q1.4,1.53,2.94,2.94A44.58,44.58,0,0,0,149,144.53a45.07,45.07,0,0,0-4.46-19.74Z" fill="#010101" stroke="#010101" stroke-miterlimit="10" stroke-width="6"></path>
  <path d="M72.65,183.47a38.16,38.16,0,0,0,3.46,13,37.39,37.39,0,0,0,39.09,21.13,36.51,36.51,0,0,0-3.46-13,37.65,37.65,0,0,0-26.08-20.75C81.26,182.93,72.65,183.47,72.65,183.47Z" fill="#010101" stroke="#010101" stroke-miterlimit="10" stroke-width="6"></path>
  <path d="M197,183.47a37.23,37.23,0,0,0-28.81,7.87h0a37.61,37.61,0,0,0-10.47,13.26,38.63,38.63,0,0,0-3.46,13,38,38,0,0,0,13.4-.53,37,37,0,0,0,15.22-7.34h0a37.44,37.44,0,0,0,10.28-13.26S196.62,188,197,183.47Z" fill="#010101" stroke="#010101" stroke-miterlimit="10" stroke-width="6"></path>
  <path d="M150.54,226l-11.24,9v44.85l107.61-87-25.93-24-15.32,12.29a47,47,0,0,1-4.41,18.87,46.29,46.29,0,0,1-13,16.43h0a46.36,46.36,0,0,1-18.92,9.07C163.06,227.05,150.54,226,150.54,226Z" fill="#010101" stroke="#010101" stroke-miterlimit="10" stroke-width="6"></path>
  <path d="M130.32,223.47V185.73a54,54,0,0,1,1.73-83.8l2.79-2.16,2.73,2.16a54,54,0,0,1,1.73,83.8v37.79l6.1-4.81a46.28,46.28,0,0,1,4.37-17.86,46.91,46.91,0,0,1,13-16.47h0a46.25,46.25,0,0,1,37.12-9.6l14.79-11.86L134.45,89.83,54.55,163l15,11.86a46.72,46.72,0,0,1,50.13,26,47.42,47.42,0,0,1,4.18,17.77Z" fill="#010101" stroke="#010101" stroke-miterlimit="10" stroke-width="6"></path>
  <path d="M63.19,181.45,47.87,169.11l-25.93,24,108,86.77V235l-11.24-9a46.92,46.92,0,0,1-19.21-.24,46.44,46.44,0,0,1-31.88-25.49A47,47,0,0,1,63.19,181.45Z" fill="#010101" stroke="#010101" stroke-miterlimit="10" stroke-width="6"></path>
</svg>
