<?xml version="1.0" encoding="UTF-8"?>
<svg xmlns="http://www.w3.org/2000/svg" viewBox="0 0 107.56 113.27">
  <g style="isolation:isolate">
    <path d="M107.56,56.64a.82.82,0,0,0-.59-.78A53.28,53.28,0,0,0,57.44,3.56,3.66,3.66,0,0,0,50.18,3,53.85,53.85,0,0,0,0,56.64a.8.8,0,0,0,.59.77,53.27,53.27,0,0,0,49.53,52.3,3.66,3.66,0,0,0,7.26.58A53.84,53.84,0,0,0,107.56,56.64Zm-50.24,52a3.66,3.66,0,0,0-7.19.57A52.78,52.78,0,0,1,1.06,57.41a.81.81,0,0,0,.57-.77,52.23,52.23,0,0,1,48.61-52A3.66,3.66,0,0,0,57.43,4a52.8,52.8,0,0,1,49.08,51.83.82.82,0,0,0-.57.78A52.23,52.23,0,0,1,57.32,108.67Z" fill="#025b59"></path>
    <circle cx="53.78" cy="56.64" r="41.35" fill="#025b59"></circle>
    <g style="mix-blend-mode:multiply">
      <circle cx="75.89" cy="78.74" r="29.74" fill="#fff"></circle>
      <circle cx="75.61" cy="78.46" r="29.74" fill="#fdfdfd"></circle>
      <circle cx="75.32" cy="78.18" r="29.74" fill="#fbfbfb"></circle>
      <circle cx="75.04" cy="77.89" r="29.74" fill="#faf9f9"></circle>
      <circle cx="74.76" cy="77.61" r="29.74" fill="#f9f8f8"></circle>
      <circle cx="74.47" cy="77.33" r="29.74" fill="#f7f7f6"></circle>
      <circle cx="74.19" cy="77.04" r="29.74" fill="#f6f5f5"></circle>
      <circle cx="73.91" cy="76.76" r="29.74" fill="#f5f4f4"></circle>
      <circle cx="73.62" cy="76.48" r="29.74" fill="#f4f3f2"></circle>
      <circle cx="73.34" cy="76.19" r="29.74" fill="#f3f2f1"></circle>
      <circle cx="73.06" cy="75.91" r="29.74" fill="#f2f1f0"></circle>
      <circle cx="72.77" cy="75.63" r="29.74" fill="#f1f0ef"></circle>
      <circle cx="72.49" cy="75.34" r="29.74" fill="#f0efee"></circle>
      <circle cx="72.2" cy="75.06" r="29.74" fill="#efeeed"></circle>
      <circle cx="71.92" cy="74.78" r="29.74" fill="#eeedec"></circle>
      <circle cx="71.64" cy="74.49" r="29.74" fill="#edeceb"></circle>
      <circle cx="71.35" cy="74.21" r="29.74" fill="#ecebea"></circle>
      <circle cx="71.07" cy="73.93" r="29.74" fill="#ebeae9"></circle>
      <circle cx="70.79" cy="73.64" r="29.74" fill="#eae9e8"></circle>
      <circle cx="70.5" cy="73.36" r="29.74" fill="#e9e8e7"></circle>
      <circle cx="70.22" cy="73.08" r="29.74" fill="#e8e7e6"></circle>
      <circle cx="69.94" cy="72.79" r="29.74" fill="#e7e6e5"></circle>
      <circle cx="69.65" cy="72.51" r="29.74" fill="#e6e5e4"></circle>
      <circle cx="69.37" cy="72.23" r="29.74" fill="#e5e4e3"></circle>
      <circle cx="69.09" cy="71.94" r="29.74" fill="#e4e3e2"></circle>
      <circle cx="68.8" cy="71.66" r="29.74" fill="#e3e2e1"></circle>
      <circle cx="68.52" cy="71.38" r="29.74" fill="#e2e1e0"></circle>
      <circle cx="68.24" cy="71.09" r="29.74" fill="#e1e0e0"></circle>
      <circle cx="67.95" cy="70.81" r="29.74" fill="#e0dfdf"></circle>
      <circle cx="67.67" cy="70.53" r="29.74" fill="#dfdede"></circle>
      <circle cx="67.39" cy="70.24" r="29.74" fill="#dedddd"></circle>
      <circle cx="67.1" cy="69.96" r="29.74" fill="#dddcdc"></circle>
      <circle cx="66.82" cy="69.67" r="29.74" fill="#dcdbdb"></circle>
      <circle cx="66.54" cy="69.39" r="29.74" fill="#dbdada"></circle>
      <circle cx="66.25" cy="69.11" r="29.74" fill="#dad9d9"></circle>
      <circle cx="65.97" cy="68.82" r="29.74" fill="#d9d8d8"></circle>
      <circle cx="65.69" cy="68.54" r="29.74" fill="#d8d7d7"></circle>
      <circle cx="65.4" cy="68.26" r="29.74" fill="#d7d6d6"></circle>
      <circle cx="65.12" cy="67.97" r="29.74" fill="#d7d6d5"></circle>
      <circle cx="64.84" cy="67.69" r="29.74" fill="#d6d5d4"></circle>
      <circle cx="64.55" cy="67.41" r="29.74" transform="translate(-3.39 131.4) rotate(-89.52)" fill="#d5d4d3"></circle>
      <circle cx="64.27" cy="67.12" r="29.74" transform="translate(-3.89 130.29) rotate(-89.07)" fill="#d4d3d3"></circle>
      <circle cx="63.99" cy="66.84" r="29.74" transform="translate(-4.36 129.22) rotate(-88.64)" fill="#d3d2d2"></circle>
      <circle cx="63.7" cy="66.56" r="29.74" transform="translate(-4.8 128.17) rotate(-88.23)" fill="#d2d1d1"></circle>
      <circle cx="63.42" cy="66.27" r="29.74" transform="translate(-5.2 127.14) rotate(-87.83)" fill="#d1d0d0"></circle>
      <circle cx="63.13" cy="65.99" r="29.74" transform="translate(-5.59 126.14) rotate(-87.46)" fill="#d0cfcf"></circle>
      <circle cx="62.85" cy="65.71" r="29.74" transform="translate(-5.95 125.16) rotate(-87.1)" fill="#cfcece"></circle>
      <circle cx="62.57" cy="65.42" r="29.74" transform="translate(-6.28 124.2) rotate(-86.76)" fill="#cfcecd"></circle>
      <circle cx="62.28" cy="65.14" r="29.74" transform="translate(-6.6 123.26) rotate(-86.44)" fill="#cecdcc"></circle>
      <circle cx="62" cy="64.86" r="29.74" transform="translate(-6.9 122.33) rotate(-86.13)" fill="#cdcccc"></circle>
      <circle cx="61.72" cy="64.57" r="29.74" transform="translate(-7.17 121.43) rotate(-85.83)" fill="#cccbcb"></circle>
      <circle cx="61.43" cy="64.29" r="29.74" transform="translate(-7.44 120.54) rotate(-85.54)" fill="#cbcaca"></circle>
      <circle cx="61.15" cy="64.01" r="29.74" transform="translate(-7.68 119.67) rotate(-85.27)" fill="#cac9c9"></circle>
      <circle cx="60.87" cy="63.72" r="29.74" transform="translate(-7.91 118.81) rotate(-85.01)" fill="#c9c8c8"></circle>
      <circle cx="60.58" cy="63.44" r="29.74" transform="translate(-8.13 117.97) rotate(-84.75)" fill="#c9c7c7"></circle>
      <circle cx="60.3" cy="63.16" r="29.74" transform="translate(-8.33 117.14) rotate(-84.51)" fill="#c8c7c6"></circle>
      <circle cx="60.02" cy="62.87" r="29.74" transform="translate(-8.52 116.32) rotate(-84.28)" fill="#c7c6c6"></circle>
      <circle cx="59.73" cy="62.59" r="29.74" transform="translate(-8.7 115.52) rotate(-84.06)" fill="#c6c5c5"></circle>
      <circle cx="59.45" cy="62.31" r="29.74" transform="translate(-8.87 114.73) rotate(-83.84)" fill="#c5c4c4"></circle>
      <circle cx="59.17" cy="62.02" r="29.74" transform="translate(-9.03 113.95) rotate(-83.63)" fill="#c4c3c3"></circle>
      <circle cx="58.88" cy="61.74" r="29.74" transform="translate(-9.18 113.17) rotate(-83.43)" fill="#c3c2c2"></circle>
      <circle cx="58.6" cy="61.46" r="29.74" transform="translate(-9.33 112.41) rotate(-83.24)" fill="#c2c2c2"></circle>
      <circle cx="58.32" cy="61.17" r="29.74" transform="translate(-9.46 111.66) rotate(-83.05)" fill="#c2c1c1"></circle>
      <circle cx="58.03" cy="60.89" r="29.74" transform="translate(-9.58 110.92) rotate(-82.87)" fill="#c1c0c0"></circle>
      <circle cx="57.75" cy="60.6" r="29.74" transform="translate(-9.7 110.19) rotate(-82.7)" fill="#c0bfbf"></circle>
      <circle cx="57.47" cy="60.32" r="29.74" transform="matrix(0.13, -0.99, 0.99, 0.13, -9.81, 109.46)" fill="#bfbebe"></circle>
      <circle cx="57.18" cy="60.04" r="29.74" transform="translate(-9.91 108.75) rotate(-82.37)" fill="#bebdbd"></circle>
      <circle cx="56.9" cy="59.75" r="29.74" transform="translate(-10.01 108.04) rotate(-82.22)" fill="#bdbdbd"></circle>
      <circle cx="56.62" cy="59.47" r="29.74" transform="translate(-10.1 107.33) rotate(-82.06)" fill="#bcbcbc"></circle>
      <circle cx="56.33" cy="59.19" r="29.74" transform="translate(-10.19 106.64) rotate(-81.92)" fill="#bbb"></circle>
      <circle cx="56.05" cy="58.9" r="29.74" transform="matrix(0.14, -0.99, 0.99, 0.14, -10.27, 105.95)" fill="#bbbaba"></circle>
      <circle cx="55.77" cy="58.62" r="29.74" transform="translate(-10.34 105.27) rotate(-81.64)" fill="#bab9b9"></circle>
      <circle cx="55.48" cy="58.34" r="29.74" transform="translate(-10.41 104.59) rotate(-81.5)" fill="#b9b9b9"></circle>
      <circle cx="55.2" cy="58.05" r="29.74" transform="translate(-10.48 103.92) rotate(-81.38)" fill="#b8b8b8"></circle>
      <circle cx="54.92" cy="57.77" r="29.74" transform="translate(-10.54 103.26) rotate(-81.25)" fill="#b7b7b7"></circle>
      <circle cx="54.63" cy="57.49" r="29.74" transform="translate(-10.59 102.6) rotate(-81.13)" fill="#b6b6b6"></circle>
      <circle cx="54.35" cy="57.2" r="29.74" transform="translate(-10.65 101.94) rotate(-81.01)" fill="#b5b5b5"></circle>
      <circle cx="54.06" cy="56.92" r="29.74" transform="translate(-10.69 101.3) rotate(-80.89)" fill="#b5b5b5"></circle>
      <circle cx="53.78" cy="56.64" r="29.74" transform="translate(-10.74 100.65) rotate(-80.78)" fill="#b4b4b4"></circle>
    </g>
    <circle cx="53.78" cy="56.64" r="29.74" transform="translate(-10.74 100.65) rotate(-80.78)" fill="#fff"></circle>
    <text transform="translate(40.5 70.94)" font-size="40" fill="#025b59" font-family="Nunito-Bold, Nunito" font-weight="700">1</text>
  </g>
</svg>
