<?xml version="1.0" encoding="UTF-8"?>
<svg xmlns="http://www.w3.org/2000/svg" viewBox="0 0 113.27 107.56">
  <g style="isolation:isolate">
    <path d="M56.64,107.56a.8.8,0,0,0,.77-.59,53.27,53.27,0,0,0,52.3-49.53,3.66,3.66,0,0,0,.58-7.26A53.85,53.85,0,0,0,56.64,0a.82.82,0,0,0-.78.59A53.28,53.28,0,0,0,3.56,50.12,3.66,3.66,0,0,0,3,57.38,53.85,53.85,0,0,0,56.64,107.56ZM4.6,57.32A3.66,3.66,0,0,0,4,50.13,52.78,52.78,0,0,1,55.86,1.06a.82.82,0,0,0,.78.57,52.23,52.23,0,0,1,52,48.61,3.66,3.66,0,0,0,.57,7.19,52.8,52.8,0,0,1-51.83,49.08.81.81,0,0,0-.77-.57A52.23,52.23,0,0,1,4.6,57.32Z" fill="#efc623"></path>
    <circle cx="56.64" cy="53.78" r="41.35" transform="translate(-4.24 4.85) rotate(-4.73)" fill="#efc623"></circle>
    <g style="mix-blend-mode:multiply">
      <circle cx="78.74" cy="75.89" r="29.74" fill="#fff"></circle>
      <circle cx="78.46" cy="75.61" r="29.74" fill="#fdfdfd"></circle>
      <circle cx="78.18" cy="75.32" r="29.74" fill="#fbfbfb"></circle>
      <circle cx="77.89" cy="75.04" r="29.74" fill="#faf9f9"></circle>
      <circle cx="77.61" cy="74.76" r="29.74" fill="#f9f8f8"></circle>
      <circle cx="77.33" cy="74.47" r="29.74" fill="#f7f7f6"></circle>
      <circle cx="77.04" cy="74.19" r="29.74" fill="#f6f5f5"></circle>
      <circle cx="76.76" cy="73.91" r="29.74" fill="#f5f4f4"></circle>
      <circle cx="76.48" cy="73.62" r="29.74" fill="#f4f3f2"></circle>
      <circle cx="76.19" cy="73.34" r="29.74" fill="#f3f2f1"></circle>
      <circle cx="75.91" cy="73.06" r="29.74" fill="#f2f1f0"></circle>
      <circle cx="75.63" cy="72.77" r="29.74" fill="#f1f0ef"></circle>
      <circle cx="75.34" cy="72.49" r="29.74" fill="#f0efee"></circle>
      <circle cx="75.06" cy="72.2" r="29.74" fill="#efeeed"></circle>
      <circle cx="74.78" cy="71.92" r="29.74" fill="#eeedec"></circle>
      <circle cx="74.49" cy="71.64" r="29.74" fill="#edeceb"></circle>
      <circle cx="74.21" cy="71.35" r="29.74" fill="#ecebea"></circle>
      <circle cx="73.93" cy="71.07" r="29.74" fill="#ebeae9"></circle>
      <circle cx="73.64" cy="70.79" r="29.74" fill="#eae9e8"></circle>
      <circle cx="73.36" cy="70.5" r="29.74" fill="#e9e8e7"></circle>
      <circle cx="73.08" cy="70.22" r="29.74" fill="#e8e7e6"></circle>
      <circle cx="72.79" cy="69.94" r="29.74" fill="#e7e6e5"></circle>
      <circle cx="72.51" cy="69.65" r="29.74" fill="#e6e5e4"></circle>
      <circle cx="72.23" cy="69.37" r="29.74" fill="#e5e4e3"></circle>
      <circle cx="71.94" cy="69.09" r="29.74" fill="#e4e3e2"></circle>
      <circle cx="71.66" cy="68.8" r="29.74" fill="#e3e2e1"></circle>
      <circle cx="71.38" cy="68.52" r="29.74" fill="#e2e1e0"></circle>
      <circle cx="71.09" cy="68.24" r="29.74" fill="#e1e0e0"></circle>
      <circle cx="70.81" cy="67.95" r="29.74" fill="#e0dfdf"></circle>
      <circle cx="70.53" cy="67.67" r="29.74" fill="#dfdede"></circle>
      <circle cx="70.24" cy="67.39" r="29.74" fill="#dedddd"></circle>
      <circle cx="69.96" cy="67.1" r="29.74" fill="#dddcdc"></circle>
      <circle cx="69.67" cy="66.82" r="29.74" fill="#dcdbdb"></circle>
      <circle cx="69.39" cy="66.54" r="29.74" fill="#dbdada"></circle>
      <circle cx="69.11" cy="66.25" r="29.74" fill="#dad9d9"></circle>
      <circle cx="68.82" cy="65.97" r="29.74" fill="#d9d8d8"></circle>
      <circle cx="68.54" cy="65.69" r="29.74" fill="#d8d7d7"></circle>
      <circle cx="68.26" cy="65.4" r="29.74" transform="translate(-6.93 122.7) rotate(-81.08)" fill="#d7d6d6"></circle>
      <circle cx="67.97" cy="65.12" r="29.74" transform="translate(-7.05 121.98) rotate(-80.93)" fill="#d7d6d5"></circle>
      <circle cx="67.69" cy="64.84" r="29.74" transform="translate(-7.15 121.27) rotate(-80.78)" fill="#d6d5d4"></circle>
      <circle cx="67.41" cy="64.55" r="29.74" transform="translate(-7.25 120.56) rotate(-80.64)" fill="#d5d4d3"></circle>
      <circle cx="67.12" cy="64.27" r="29.74" transform="matrix(0.17, -0.99, 0.99, 0.17, -7.35, 119.86)" fill="#d4d3d3"></circle>
      <circle cx="66.84" cy="63.99" r="29.74" transform="translate(-7.44 119.16) rotate(-80.35)" fill="#d3d2d2"></circle>
      <circle cx="66.56" cy="63.7" r="29.74" transform="translate(-7.53 118.47) rotate(-80.22)" fill="#d2d1d1"></circle>
      <circle cx="66.27" cy="63.42" r="29.74" transform="translate(-7.61 117.78) rotate(-80.08)" fill="#d1d0d0"></circle>
      <circle cx="65.99" cy="63.13" r="29.74" transform="translate(-7.69 117.1) rotate(-79.95)" fill="#d0cfcf"></circle>
      <circle cx="65.71" cy="62.85" r="29.74" transform="translate(-7.77 116.42) rotate(-79.82)" fill="#cfcece"></circle>
      <circle cx="65.42" cy="62.57" r="29.74" transform="translate(-7.84 115.75) rotate(-79.7)" fill="#cfcecd"></circle>
      <circle cx="65.14" cy="62.28" r="29.74" transform="translate(-7.91 115.08) rotate(-79.57)" fill="#cecdcc"></circle>
      <circle cx="64.86" cy="62" r="29.74" transform="translate(-7.97 114.41) rotate(-79.45)" fill="#cdcccc"></circle>
      <circle cx="64.57" cy="61.72" r="29.74" transform="translate(-8.03 113.75) rotate(-79.33)" fill="#cccbcb"></circle>
      <circle cx="64.29" cy="61.43" r="29.74" transform="translate(-8.09 113.09) rotate(-79.21)" fill="#cbcaca"></circle>
      <circle cx="64.01" cy="61.15" r="29.74" transform="translate(-8.15 112.44) rotate(-79.1)" fill="#cac9c9"></circle>
      <circle cx="63.72" cy="60.87" r="29.74" transform="translate(-8.2 111.79) rotate(-78.99)" fill="#c9c8c8"></circle>
      <circle cx="63.44" cy="60.58" r="29.74" transform="translate(-8.25 111.14) rotate(-78.88)" fill="#c9c7c7"></circle>
      <circle cx="63.16" cy="60.3" r="29.74" transform="translate(-8.29 110.5) rotate(-78.77)" fill="#c8c7c6"></circle>
      <circle cx="62.87" cy="60.02" r="29.74" transform="translate(-8.34 109.86) rotate(-78.66)" fill="#c7c6c6"></circle>
      <circle cx="62.59" cy="59.73" r="29.74" transform="translate(-8.38 109.22) rotate(-78.55)" fill="#c6c5c5"></circle>
      <circle cx="62.31" cy="59.45" r="29.74" transform="matrix(0.2, -0.98, 0.98, 0.2, -8.41, 108.59)" fill="#c5c4c4"></circle>
      <circle cx="62.02" cy="59.17" r="29.74" transform="translate(-8.45 107.96) rotate(-78.35)" fill="#c4c3c3"></circle>
      <circle cx="61.74" cy="58.88" r="29.74" transform="translate(-8.48 107.34) rotate(-78.25)" fill="#c3c2c2"></circle>
      <circle cx="61.46" cy="58.6" r="29.74" transform="translate(-8.51 106.72) rotate(-78.15)" fill="#c2c2c2"></circle>
      <circle cx="61.17" cy="58.32" r="29.74" transform="translate(-8.54 106.1) rotate(-78.06)" fill="#c2c1c1"></circle>
      <circle cx="60.89" cy="58.03" r="29.74" transform="translate(-8.57 105.48) rotate(-77.96)" fill="#c1c0c0"></circle>
      <circle cx="60.6" cy="57.75" r="29.74" transform="translate(-8.59 104.87) rotate(-77.87)" fill="#c0bfbf"></circle>
      <circle cx="60.32" cy="57.47" r="29.74" transform="translate(-8.61 104.25) rotate(-77.78)" fill="#bfbebe"></circle>
      <circle cx="60.04" cy="57.18" r="29.74" transform="translate(-8.63 103.65) rotate(-77.69)" fill="#bebdbd"></circle>
      <circle cx="59.75" cy="56.9" r="29.74" transform="translate(-8.65 103.04) rotate(-77.6)" fill="#bdbdbd"></circle>
      <circle cx="59.47" cy="56.62" r="29.74" transform="translate(-8.66 102.44) rotate(-77.51)" fill="#bcbcbc"></circle>
      <circle cx="59.19" cy="56.33" r="29.74" transform="translate(-8.68 101.84) rotate(-77.43)" fill="#bbb"></circle>
      <circle cx="58.9" cy="56.05" r="29.74" transform="translate(-8.69 101.24) rotate(-77.34)" fill="#bbbaba"></circle>
      <circle cx="58.62" cy="55.77" r="29.74" transform="translate(-8.7 100.65) rotate(-77.26)" fill="#bab9b9"></circle>
      <circle cx="58.34" cy="55.48" r="29.74" transform="translate(-8.71 100.05) rotate(-77.18)" fill="#b9b9b9"></circle>
      <circle cx="58.05" cy="55.2" r="29.74" transform="translate(-8.71 99.46) rotate(-77.1)" fill="#b8b8b8"></circle>
      <circle cx="57.77" cy="54.92" r="29.74" transform="translate(-8.72 98.88) rotate(-77.02)" fill="#b7b7b7"></circle>
      <circle cx="57.49" cy="54.63" r="29.74" transform="translate(-8.72 98.29) rotate(-76.94)" fill="#b6b6b6"></circle>
      <circle cx="57.2" cy="54.35" r="29.74" transform="translate(-8.72 97.71) rotate(-76.87)" fill="#b5b5b5"></circle>
      <circle cx="56.92" cy="54.06" r="29.74" transform="translate(-8.72 97.13) rotate(-76.79)" fill="#b5b5b5"></circle>
      <circle cx="56.64" cy="53.78" r="29.74" transform="translate(-8.72 96.55) rotate(-76.72)" fill="#b4b4b4"></circle>
    </g>
    <circle cx="56.64" cy="53.78" r="29.74" transform="translate(-8.72 96.55) rotate(-76.72)" fill="#fff"></circle>
    <text transform="translate(44.55 69.51)" font-size="40" fill="#efc623" font-family="Nunito-Bold, Nunito" font-weight="700">2</text>
  </g>
</svg>
